<mxfile host="Electron" modified="2024-03-04T22:01:31.746Z" agent="Mozilla/5.0 (Windows NT 10.0; Win64; x64) AppleWebKit/537.36 (KHTML, like Gecko) draw.io/23.1.5 Chrome/120.0.6099.109 Electron/28.1.0 Safari/537.36" etag="qyS8bGOX-8vuzx0Q1wHY" version="23.1.5" type="device">
  <diagram name="Page-1" id="o7eKeerwchL2syPwGktH">
    <mxGraphModel dx="1970" dy="524" grid="1" gridSize="10" guides="1" tooltips="1" connect="1" arrows="1" fold="1" page="1" pageScale="1" pageWidth="850" pageHeight="1100" math="0" shadow="0">
      <root>
        <mxCell id="0" />
        <mxCell id="1" parent="0" />
        <mxCell id="HuNq3QhvRGzcepAxWB4n-1" value="Book 1" style="ellipse;whiteSpace=wrap;html=1;" parent="1" vertex="1">
          <mxGeometry x="90" y="60" width="120" height="40" as="geometry" />
        </mxCell>
        <mxCell id="HuNq3QhvRGzcepAxWB4n-4" value="Book 2" style="ellipse;whiteSpace=wrap;html=1;" parent="1" vertex="1">
          <mxGeometry x="240" y="60" width="120" height="40" as="geometry" />
        </mxCell>
        <mxCell id="HuNq3QhvRGzcepAxWB4n-7" value="Student 1" style="ellipse;whiteSpace=wrap;html=1;" parent="1" vertex="1">
          <mxGeometry x="90" y="340" width="120" height="40" as="geometry" />
        </mxCell>
        <mxCell id="HuNq3QhvRGzcepAxWB4n-8" value="Paid user 1" style="ellipse;whiteSpace=wrap;html=1;" parent="1" vertex="1">
          <mxGeometry x="270" y="340" width="120" height="40" as="geometry" />
        </mxCell>
        <mxCell id="HuNq3QhvRGzcepAxWB4n-11" value="Book 3" style="ellipse;whiteSpace=wrap;html=1;" parent="1" vertex="1">
          <mxGeometry x="370" y="60" width="120" height="40" as="geometry" />
        </mxCell>
        <mxCell id="HuNq3QhvRGzcepAxWB4n-13" value="Loan asset 1" style="ellipse;whiteSpace=wrap;html=1;" parent="1" vertex="1">
          <mxGeometry x="-50" y="220" width="120" height="40" as="geometry" />
        </mxCell>
        <mxCell id="HuNq3QhvRGzcepAxWB4n-14" value="Loan Asset 2" style="ellipse;whiteSpace=wrap;html=1;" parent="1" vertex="1">
          <mxGeometry x="100" y="220" width="120" height="40" as="geometry" />
        </mxCell>
        <mxCell id="HuNq3QhvRGzcepAxWB4n-15" value="Loan Asset 3" style="ellipse;whiteSpace=wrap;html=1;" parent="1" vertex="1">
          <mxGeometry x="240" y="220" width="120" height="40" as="geometry" />
        </mxCell>
        <mxCell id="HuNq3QhvRGzcepAxWB4n-16" value="" style="endArrow=none;html=1;rounded=0;entryX=0.5;entryY=1;entryDx=0;entryDy=0;" parent="1" target="HuNq3QhvRGzcepAxWB4n-13" edge="1">
          <mxGeometry width="50" height="50" relative="1" as="geometry">
            <mxPoint x="150" y="340" as="sourcePoint" />
            <mxPoint x="200" y="290" as="targetPoint" />
          </mxGeometry>
        </mxCell>
        <mxCell id="HuNq3QhvRGzcepAxWB4n-17" value="" style="endArrow=none;html=1;rounded=0;entryX=0.452;entryY=1.013;entryDx=0;entryDy=0;entryPerimeter=0;" parent="1" target="HuNq3QhvRGzcepAxWB4n-14" edge="1">
          <mxGeometry width="50" height="50" relative="1" as="geometry">
            <mxPoint x="150" y="340" as="sourcePoint" />
            <mxPoint x="290" y="260" as="targetPoint" />
          </mxGeometry>
        </mxCell>
        <mxCell id="HuNq3QhvRGzcepAxWB4n-18" value="" style="endArrow=none;html=1;rounded=0;entryX=0.5;entryY=1;entryDx=0;entryDy=0;exitX=0.5;exitY=0;exitDx=0;exitDy=0;" parent="1" source="HuNq3QhvRGzcepAxWB4n-13" target="HuNq3QhvRGzcepAxWB4n-1" edge="1">
          <mxGeometry width="50" height="50" relative="1" as="geometry">
            <mxPoint x="150" y="220" as="sourcePoint" />
            <mxPoint x="200" y="170" as="targetPoint" />
          </mxGeometry>
        </mxCell>
        <mxCell id="HuNq3QhvRGzcepAxWB4n-19" value="" style="endArrow=none;html=1;rounded=0;entryX=0.5;entryY=1;entryDx=0;entryDy=0;exitX=0.5;exitY=0;exitDx=0;exitDy=0;" parent="1" source="HuNq3QhvRGzcepAxWB4n-14" target="HuNq3QhvRGzcepAxWB4n-4" edge="1">
          <mxGeometry width="50" height="50" relative="1" as="geometry">
            <mxPoint x="300" y="220" as="sourcePoint" />
            <mxPoint x="350" y="170" as="targetPoint" />
          </mxGeometry>
        </mxCell>
        <mxCell id="HuNq3QhvRGzcepAxWB4n-20" value="" style="endArrow=none;html=1;rounded=0;entryX=0.5;entryY=1;entryDx=0;entryDy=0;" parent="1" target="HuNq3QhvRGzcepAxWB4n-15" edge="1">
          <mxGeometry width="50" height="50" relative="1" as="geometry">
            <mxPoint x="340" y="340" as="sourcePoint" />
            <mxPoint x="390" y="290" as="targetPoint" />
          </mxGeometry>
        </mxCell>
        <mxCell id="HuNq3QhvRGzcepAxWB4n-22" value="Loan Asset 4" style="ellipse;whiteSpace=wrap;html=1;" parent="1" vertex="1">
          <mxGeometry x="376" y="220" width="120" height="40" as="geometry" />
        </mxCell>
        <mxCell id="HuNq3QhvRGzcepAxWB4n-24" value="" style="endArrow=none;html=1;rounded=0;exitX=0.5;exitY=0;exitDx=0;exitDy=0;entryX=0.557;entryY=1.035;entryDx=0;entryDy=0;entryPerimeter=0;" parent="1" source="HuNq3QhvRGzcepAxWB4n-22" target="HuNq3QhvRGzcepAxWB4n-11" edge="1">
          <mxGeometry width="50" height="50" relative="1" as="geometry">
            <mxPoint x="230" y="260" as="sourcePoint" />
            <mxPoint x="280" y="210" as="targetPoint" />
          </mxGeometry>
        </mxCell>
        <mxCell id="HuNq3QhvRGzcepAxWB4n-25" value="" style="endArrow=none;html=1;rounded=0;" parent="1" edge="1">
          <mxGeometry width="50" height="50" relative="1" as="geometry">
            <mxPoint x="300" y="220" as="sourcePoint" />
            <mxPoint x="300" y="100" as="targetPoint" />
          </mxGeometry>
        </mxCell>
        <mxCell id="HuNq3QhvRGzcepAxWB4n-26" value="" style="endArrow=none;html=1;rounded=0;entryX=0.5;entryY=1;entryDx=0;entryDy=0;" parent="1" target="HuNq3QhvRGzcepAxWB4n-22" edge="1">
          <mxGeometry width="50" height="50" relative="1" as="geometry">
            <mxPoint x="340" y="340" as="sourcePoint" />
            <mxPoint x="390" y="290" as="targetPoint" />
          </mxGeometry>
        </mxCell>
      </root>
    </mxGraphModel>
  </diagram>
</mxfile>
